# xmcd CD database file
#
# Track frame offsets:
#	150
#	13593
#	24774
#	34530
#	44886
#	56441
#	70022
#	84128
#	97332
#	104763
#	120744
#	133800
#	145355
#
# Disc length: 2044 seconds
#
# Revision: 4
# Processed by: cddbd v1.5.2PL0 Copyright (c) Steve Scherf et al.
# Submitted via: CDex 1.51
#
DISCID=b307fa0d
DTITLE=Buffy Sainte-Marie - I'm Gonna Be A Country Girl Again
DYEAR=1968
DGENRE=Country
TTITLE0=I'm Gonna Be A Country Girl Again
TTITLE1=He's a pretty good Man if you ask me
TTITLE2=Uncle Joe
TTITLE3=A soulful Shade of blue
TTITLE4=From the Bottom of my Heart
TTITLE5=Sometimes when I get to thinkin'
TTITLE6=The Piney Wood Hills
TTITLE7=Now that the Buffalo's gone
TTITLE8=They gotta quit kickin' my Dawg around
TTITLE9=Tall Trees in Georgia
TTITLE10=The Love of a good Man
TTITLE11=Take my Hand for awhile
TTITLE12=Gonna feel much better when you're gone
EXTD=YEAR: 1968
EXTT0=
EXTT1=
EXTT2=
EXTT3=
EXTT4=
EXTT5=
EXTT6=
EXTT7=
EXTT8=
EXTT9=
EXTT10=
EXTT11=
EXTT12=
PLAYORDER=
